<svg xmlns="http://www.w3.org/2000/svg" viewBox="0 0 7.96 163.54"><defs><style>.cls-1{fill:#3e3e3d;}</style></defs><title>Recurso 1</title><g id="Capa_2" data-name="Capa 2"><g id="Capa_1-2" data-name="Capa 1"><path class="cls-1" d="M.19,0H7.77V2.52a5.65,5.65,0,0,1-.25,1.82,2.85,2.85,0,0,1-.85,1.2,3.76,3.76,0,0,1-2.51.8,4,4,0,0,1-2.93-1,3.71,3.71,0,0,1-1-2.81ZM1,1.08V2.45a2.48,2.48,0,0,0,.8,2.09,3.57,3.57,0,0,0,2.26.66,3.12,3.12,0,0,0,2.1-.65,2,2,0,0,0,.64-.94A5.76,5.76,0,0,0,7,2V1.08Z"/><path class="cls-1" d="M.19,8.9H7.77v4.24H7V10H4.53v2.64H3.74V10H1v3.38H.19Z"/><path class="cls-1" d="M.33,15.17H1.4a5.22,5.22,0,0,0-.6,2.1,1.51,1.51,0,0,0,.34,1,1.08,1.08,0,0,0,.87.39,1.22,1.22,0,0,0,.76-.25,3.37,3.37,0,0,0,.7-.94l.3-.52a4.92,4.92,0,0,1,1-1.37A1.79,1.79,0,0,1,6,15.21a1.86,1.86,0,0,1,1.44.63A2.36,2.36,0,0,1,8,17.46a6.31,6.31,0,0,1-.3,1.85h-1a5.39,5.39,0,0,0,.47-1.79,1.45,1.45,0,0,0-.29-.92.94.94,0,0,0-.75-.36,1,1,0,0,0-.67.26,4.23,4.23,0,0,0-.7,1L4.43,18a4.77,4.77,0,0,1-1,1.37,1.87,1.87,0,0,1-1.19.39A2,2,0,0,1,.6,19.05,3,3,0,0,1,0,17.12,7.59,7.59,0,0,1,.33,15.17Z"/><path class="cls-1" d="M.19,24.13H7V21.44h.81v6.45H7V25.21H.19Z"/><path class="cls-1" d="M.19,30H7.77v1.08H.19Z"/><path class="cls-1" d="M.19,34.08H7.77v1.07H1v3.41H.19Z"/><path class="cls-1" d="M.19,39.82l7.58,3V43.9l-7.58,3V45.69l2.1-.82V41.66l-2.1-.84ZM3.09,42v2.59l3.26-1.29Z"/><path class="cls-1" d="M.19,49H7.77v2.52a5.65,5.65,0,0,1-.25,1.82,2.85,2.85,0,0,1-.85,1.2,3.82,3.82,0,0,1-2.51.8,4,4,0,0,1-2.93-1,3.71,3.71,0,0,1-1-2.81ZM1,50.07v1.38a2.49,2.49,0,0,0,.8,2.09,3.57,3.57,0,0,0,2.26.66,3.12,3.12,0,0,0,2.1-.65,2,2,0,0,0,.64-.94A5.76,5.76,0,0,0,7,51v-.89Z"/><path class="cls-1" d="M0,61a3.19,3.19,0,0,1,1.09-2.53,4.24,4.24,0,0,1,2.89-1,4.18,4.18,0,0,1,2.89,1,3.6,3.6,0,0,1,0,5.15,4.16,4.16,0,0,1-2.89,1,4.18,4.18,0,0,1-2.91-1A3.34,3.34,0,0,1,0,61Zm.8,0a2.11,2.11,0,0,0,.84,1.79A3.81,3.81,0,0,0,4,63.4a3.72,3.72,0,0,0,2.32-.64,2.29,2.29,0,0,0,0-3.53A3.82,3.82,0,0,0,4,58.6a3.87,3.87,0,0,0-2.34.63A2.06,2.06,0,0,0,.8,61Z"/><path class="cls-1" d="M.19,67.09H7.77v2.3a2.56,2.56,0,0,1-.48,1.67,1.72,1.72,0,0,1-1.4.58,2.17,2.17,0,0,1-1.29-.4,2.61,2.61,0,0,1-.86-1.13L.19,72.64V71.32l3.2-2.16v-1H.19Zm4,1.07v.35c0,1.35.53,2,1.59,2C6.57,70.54,7,70,7,68.84v-.68Z"/><path class="cls-1" d="M.19,73.88l7.58,3V78l-7.58,3V79.75l2.1-.82V75.72l-2.1-.84ZM3.09,76v2.58l3.26-1.29Z"/><path class="cls-1" d="M.19,86.53l7.58,3V90.6l-7.58,3V92.39l2.1-.82V88.36l-2.1-.84Zm2.9,2.14v2.59L6.35,90Z"/><path class="cls-1" d="M.39,101.39A9,9,0,0,1,0,99a3.6,3.6,0,0,1,1-2.77,4.16,4.16,0,0,1,3-1,4.15,4.15,0,0,1,2.93,1A3.57,3.57,0,0,1,8,99a9,9,0,0,1-.35,2.4h-1A8.27,8.27,0,0,0,7.15,99a2.35,2.35,0,0,0-.83-1.91A3.65,3.65,0,0,0,4,96.4a3.44,3.44,0,0,0-2.33.72,2.57,2.57,0,0,0-.84,2A4.19,4.19,0,0,0,1,100.32H3.46v1.07Z"/><path class="cls-1" d="M.19,103.43l7.58,3v1.06l-7.58,3V109.3l2.1-.82v-3.21l-2.1-.84Zm2.9,2.15v2.59l3.26-1.3Z"/><path class="cls-1" d="M.19,114.68l7.58-2.87v1.08l-6.21,2.34,6.21,2.27v.94L.19,115.69Z"/><path class="cls-1" d="M.19,120.51H7.77v4.24H7v-3.16H4.53v2.64H3.74v-2.64H1V125H.19Z"/><path class="cls-1" d="M.19,130.71l7.58,3v1.06l-7.58,3v-1.16l2.1-.82v-3.21l-2.1-.84Zm2.9,2.15v2.58l3.26-1.29Z"/><path class="cls-1" d="M.19,139.4h.86L7,143.47v-3.82h.81v5.11H7l-5.91-4.07v4.07H.19Z"/><path class="cls-1" d="M7.77,147.21v1.08H3a2.65,2.65,0,0,0-1.66.42,1.65,1.65,0,0,0-.52,1.34,1.54,1.54,0,0,0,.49,1.28,2.8,2.8,0,0,0,1.66.38H7.77v.94H3a4.57,4.57,0,0,1-1.52-.2,2.1,2.1,0,0,1-.94-.7A2.8,2.8,0,0,1,0,150a2.71,2.71,0,0,1,.73-2.09A3.26,3.26,0,0,1,3,147.21Z"/><path class="cls-1" d="M.19,155.59H7.77v1.07H1v3.41H.19Z"/><path class="cls-1" d="M.19,162.27H1.45v1.27H.19Z"/></g></g></svg>