<svg xmlns="http://www.w3.org/2000/svg" viewBox="0 0 16.91 13.53"><defs><style>.cls-1{fill:#3e3e3d;}</style></defs><title>Recurso 2</title><g id="Capa_2" data-name="Capa 2"><g id="Capa_1-2" data-name="Capa 1"><path class="cls-1" d="M16.45.25a7,7,0,0,1-2.21.83A3.49,3.49,0,0,0,11.71,0,3.44,3.44,0,0,0,8.24,3.42a3.31,3.31,0,0,0,.09.77A9.91,9.91,0,0,1,1.18.63,3.32,3.32,0,0,0,.71,2.34,3.38,3.38,0,0,0,2.25,5.18,3.46,3.46,0,0,1,.68,4.76v0A3.44,3.44,0,0,0,3.46,8.15a3.39,3.39,0,0,1-.91.12,3.49,3.49,0,0,1-.65-.06,3.47,3.47,0,0,0,3.24,2.37A7,7,0,0,1,.83,12,5.69,5.69,0,0,1,0,12a9.94,9.94,0,0,0,5.32,1.54,9.72,9.72,0,0,0,9.87-9.72c0-.15,0-.29,0-.44A6.77,6.77,0,0,0,16.91,1.6a7,7,0,0,1-2,.54A3.42,3.42,0,0,0,16.45.25Z"/></g></g></svg>