<svg xmlns="http://www.w3.org/2000/svg" viewBox="0 0 7.96 163.54"><defs><style>.cls-1{fill:#3e3e3d;}</style></defs><title>Recurso 2</title><g id="Capa_2" data-name="Capa 2"><g id="Capa_1-2" data-name="Capa 1"><path class="cls-1" d="M7.77,163.54H.19V161a5.39,5.39,0,0,1,.25-1.82,2.79,2.79,0,0,1,.85-1.2,3.73,3.73,0,0,1,2.51-.81,4.1,4.1,0,0,1,2.93,1,3.73,3.73,0,0,1,1,2.81ZM7,162.46v-1.38A2.47,2.47,0,0,0,6.17,159a3.53,3.53,0,0,0-2.27-.67,3.11,3.11,0,0,0-2.1.66,1.92,1.92,0,0,0-.63.94A5.6,5.6,0,0,0,1,161.58v.88Z"/><path class="cls-1" d="M7.77,154.63H.19V150.4H1v3.16H3.42v-2.65h.8v2.65H7v-3.38h.81Z"/><path class="cls-1" d="M7.62,148.37H6.56a5.39,5.39,0,0,0,.59-2.11,1.53,1.53,0,0,0-.33-1,1.11,1.11,0,0,0-.88-.38,1.13,1.13,0,0,0-.75.25,3.45,3.45,0,0,0-.7.93l-.3.53a5,5,0,0,1-1,1.36,1.74,1.74,0,0,1-1.14.4,1.81,1.81,0,0,1-1.44-.64A2.31,2.31,0,0,1,0,146.08a6.58,6.58,0,0,1,.29-1.85h1A5.61,5.61,0,0,0,.8,146a1.42,1.42,0,0,0,.3.93.94.94,0,0,0,.75.36,1,1,0,0,0,.67-.27,3.94,3.94,0,0,0,.69-1l.31-.54a4.63,4.63,0,0,1,1.06-1.37,1.87,1.87,0,0,1,1.19-.39,2,2,0,0,1,1.59.73,2.93,2.93,0,0,1,.6,1.93A7.67,7.67,0,0,1,7.62,148.37Z"/><path class="cls-1" d="M7.77,139.41H1v2.68H.19v-6.45H1v2.69H7.77Z"/><path class="cls-1" d="M7.77,133.53H.19v-1.07H7.77Z"/><path class="cls-1" d="M7.77,129.46H.19v-1.08H7V125h.81Z"/><path class="cls-1" d="M7.77,123.71l-7.58-3v-1.07l7.58-3v1.16l-2.1.83v3.21l2.1.83Zm-2.9-2.14V119L1.6,120.27Z"/><path class="cls-1" d="M7.77,114.54H.19V112a5.39,5.39,0,0,1,.25-1.82,2.85,2.85,0,0,1,.85-1.2,3.73,3.73,0,0,1,2.51-.81,4.1,4.1,0,0,1,2.93,1,3.74,3.74,0,0,1,1,2.81ZM7,113.46v-1.37A2.48,2.48,0,0,0,6.17,110a3.58,3.58,0,0,0-2.27-.66,3.11,3.11,0,0,0-2.1.65,1.92,1.92,0,0,0-.63.94A5.6,5.6,0,0,0,1,112.58v.88Z"/><path class="cls-1" d="M8,102.58a3.21,3.21,0,0,1-1.1,2.54,4.22,4.22,0,0,1-2.89,1,4.2,4.2,0,0,1-2.89-1,3.62,3.62,0,0,1,0-5.16A4.18,4.18,0,0,1,4,99a4.23,4.23,0,0,1,2.92,1A3.35,3.35,0,0,1,8,102.58Zm-.81,0a2.15,2.15,0,0,0-.83-1.8A3.88,3.88,0,0,0,4,100.14a3.75,3.75,0,0,0-2.31.63,2.11,2.11,0,0,0-.84,1.77,2.08,2.08,0,0,0,.84,1.76,3.73,3.73,0,0,0,2.33.64,3.82,3.82,0,0,0,2.33-.63A2,2,0,0,0,7.15,102.57Z"/><path class="cls-1" d="M7.77,96.44H.19V94.15a2.54,2.54,0,0,1,.48-1.67,1.71,1.71,0,0,1,1.4-.58,2.12,2.12,0,0,1,1.28.4,2.5,2.5,0,0,1,.87,1.13L7.77,90.9v1.32L4.56,94.37v1H7.77Zm-4-1.06V95c0-1.35-.53-2-1.59-2C1.38,93,1,93.57,1,94.7v.68Z"/><path class="cls-1" d="M7.77,89.65l-7.58-3V85.58l7.58-3v1.16l-2.1.82v3.21l2.1.84Zm-2.9-2.14V84.92L1.6,86.21Z"/><path class="cls-1" d="M7.77,77,.19,74V72.94l7.58-3v1.16L5.67,72v3.21l2.1.83Zm-2.9-2.15V72.28L1.6,73.57Z"/><path class="cls-1" d="M7.56,62.14a9.07,9.07,0,0,1,.4,2.4,3.66,3.66,0,0,1-1,2.78,4.17,4.17,0,0,1-2.95,1,4.09,4.09,0,0,1-2.93-1,3.55,3.55,0,0,1-1-2.74,9.09,9.09,0,0,1,.34-2.41h1A8.14,8.14,0,0,0,.8,64.56a2.31,2.31,0,0,0,.84,1.9A3.63,3.63,0,0,0,4,67.14a3.39,3.39,0,0,0,2.33-.73,2.53,2.53,0,0,0,.83-2A4,4,0,0,0,7,63.21H4.5V62.14Z"/><path class="cls-1" d="M7.77,60.1l-7.58-3V56l7.58-3v1.16l-2.1.83v3.21l2.1.83ZM4.87,58V55.37L1.6,56.66Z"/><path class="cls-1" d="M7.77,48.86.19,51.72V50.65l6.2-2.35L.19,46V45.1l7.58,2.75Z"/><path class="cls-1" d="M7.77,43H.19V38.79H1V42H3.42V39.3h.8V42H7V38.57h.81Z"/><path class="cls-1" d="M7.77,32.82l-7.58-3V28.75l7.58-3V27l-2.1.82V31l2.1.83Zm-2.9-2.14V28.09L1.6,29.38Z"/><path class="cls-1" d="M7.77,24.14H6.91L1,20.07v3.82H.19V18.78H1l5.92,4.07V18.78h.86Z"/><path class="cls-1" d="M.19,16.32V15.25H5a2.63,2.63,0,0,0,1.66-.42,1.62,1.62,0,0,0,.52-1.35,1.49,1.49,0,0,0-.49-1.27A2.67,2.67,0,0,0,5,11.83H.19v-.94H5a4.72,4.72,0,0,1,1.53.19,2.21,2.21,0,0,1,.93.7A2.78,2.78,0,0,1,8,13.55a2.72,2.72,0,0,1-.74,2.1A3.23,3.23,0,0,1,5,16.32Z"/><path class="cls-1" d="M7.77,8H.19V6.87H7V3.46h.81Z"/><path class="cls-1" d="M7.77,1.26H6.5V0H7.77Z"/></g></g></svg>