<svg xmlns="http://www.w3.org/2000/svg" viewBox="0 0 318 60.3"><defs><style>.cls-1{opacity:0.7;}.cls-2{fill:#e5e6e6;}</style></defs><title>Recurso 1</title><g id="Capa_2" data-name="Capa 2"><g id="Capa_1-2" data-name="Capa 1"><g class="cls-1"><path class="cls-2" d="M314.7,51.92a3.3,3.3,0,1,1-3.33,3.29,3.29,3.29,0,0,1,3.33-3.29m0,6.13A2.82,2.82,0,1,0,312,55.21a2.72,2.72,0,0,0,2.74,2.84m-1.29-4.76h1.48c.93,0,1.35.37,1.35,1.11a1,1,0,0,1-1,1.06l1.09,1.7h-.64l-1.05-1.67H314v1.67h-.59ZM314,55h.64c.52,0,1,0,1-.63s-.44-.6-.85-.6H314Z"/><path class="cls-2" d="M53.51,51.92a3.3,3.3,0,1,1-3.31,3.29,3.28,3.28,0,0,1,3.31-3.29m0,6.13a2.82,2.82,0,1,0-2.72-2.84,2.72,2.72,0,0,0,2.72,2.84m-1.28-4.76h1.49c.93,0,1.34.37,1.34,1.11a1,1,0,0,1-1,1.06l1.11,1.7h-.65l-1-1.67h-.64v1.67h-.6ZM52.82,55h.64c.53,0,1,0,1-.63s-.43-.6-.84-.6h-.81Z"/><path class="cls-2" d="M83.05,22.64a.48.48,0,0,1,.45.31C93,51.46,93.88,53.78,94.83,56.62a.52.52,0,0,1-.06.44.53.53,0,0,1-.39.2H90.65A.5.5,0,0,1,90.2,57c-1.45-3.89-2.16-6.44-3.57-10.22H75.55l-3.48,10.2a.47.47,0,0,1-.44.33H67.94a.48.48,0,0,1-.38-.2.47.47,0,0,1-.06-.44L79,23a.46.46,0,0,1,.45-.31ZM77,42.47h8.46l-4.2-12.93Z"/><path class="cls-2" d="M101.42,54.23a12.93,12.93,0,0,1-3.08-8.74V38.87a12.9,12.9,0,0,1,3.08-8.69,10.36,10.36,0,0,1,7.84-3.45,13.84,13.84,0,0,1,9.49,3.54.46.46,0,0,1,0,.62L117,33.36a.52.52,0,0,1-.35.2.5.5,0,0,1-.37-.17,9.15,9.15,0,0,0-7-2.94c-3.9,0-6.82,3.11-6.85,8.42v6.62c0,5.89,3.34,8.51,7,8.54,2.81,0,6.26-1.84,6.26-5.85V44.84H109a.46.46,0,0,1-.46-.41l-.4-2.83a.5.5,0,0,1,.11-.37.44.44,0,0,1,.36-.16h10.65a.49.49,0,0,1,.33.13.48.48,0,0,1,.14.34v6.7c0,5.45-4.49,9.47-10.26,9.47h0a10.55,10.55,0,0,1-8-3.48"/><path class="cls-2" d="M143.93,57.26a.49.49,0,0,1-.45-.31c-1.25-3.36-1.88-5.6-3.09-8.87h-9.56l-3,8.85a.47.47,0,0,1-.45.33h-3.2a.52.52,0,0,1-.39-.2.5.5,0,0,1-.06-.44l10-29.32a.47.47,0,0,1,.45-.32h3.17v0a.47.47,0,0,1,.45.32c8.3,24.83,9.05,26.87,9.87,29.33a.49.49,0,0,1-.06.44.53.53,0,0,1-.38.2Zm-11.86-13h7.21l-3.58-11Z"/><path class="cls-2" d="M157.24,57.26a.45.45,0,0,1-.44-.34l-9.17-29.34a.48.48,0,0,1,.07-.43.46.46,0,0,1,.38-.17h3.28a.49.49,0,0,1,.46.34l7.61,24.63,7.67-24.63a.44.44,0,0,1,.45-.33h3.25v0a.46.46,0,0,1,.38.21.47.47,0,0,1,.06.4l-9.12,29.34a.47.47,0,0,1-.46.34Z"/><path class="cls-2" d="M176.63,57.26a.53.53,0,0,1-.33-.15.45.45,0,0,1-.13-.32V27.44a.48.48,0,0,1,.13-.34.51.51,0,0,1,.33-.13h16.66a.54.54,0,0,1,.32.13.5.5,0,0,1,.14.35v2.93a.48.48,0,0,1-.14.34.48.48,0,0,1-.32.13H180.13c0,3.29,0,5.63,0,9.32h11.94a.43.43,0,0,1,.32.14.43.43,0,0,1,.16.34v2.93a.44.44,0,0,1-.16.33.53.53,0,0,1-.32.15H180.13v9.27h13a.46.46,0,0,1,.46.42l.4,3a.46.46,0,0,1-.11.36.49.49,0,0,1-.35.17Z"/><path class="cls-2" d="M231,57.24a.46.46,0,0,1-.45-.29c-1.44-3.89-2.16-6.44-3.56-10.22H215.91l-3.49,10.2a.48.48,0,0,1-.45.31h-3.69a.46.46,0,0,1-.38-.19.47.47,0,0,1-.07-.43L219.3,23a.47.47,0,0,1,.45-.31h3.64v0a.48.48,0,0,1,.45.31c9.53,28.51,10.38,30.83,11.33,33.67a.46.46,0,0,1-.45.62Zm-13.7-14.77h8.46l-4.21-12.91Z"/><path class="cls-2" d="M239.67,57.24a.47.47,0,0,1-.45-.34l-.9-3.61a.4.4,0,0,1,.07-.37c3.82-5.68,11.24-16.29,15.23-22H240.15a.46.46,0,0,1-.46-.36l-.71-3a.44.44,0,0,1,.09-.41.52.52,0,0,1,.37-.17h19a.51.51,0,0,1,.33.13.49.49,0,0,1,.14.34l0,2.95-.07.25c-2.73,4-10.9,15.7-15.68,22.72h15.1a.57.57,0,0,1,.33.14.54.54,0,0,1,.13.35v2.94a.55.55,0,0,1-.13.33.61.61,0,0,1-.33.12Z"/><path class="cls-2" d="M267.23,54.37A11.32,11.32,0,0,1,264,46.12V27.44a.45.45,0,0,1,.14-.33.44.44,0,0,1,.33-.13h3.05a.5.5,0,0,1,.34.12.49.49,0,0,1,.14.34V46.09c0,4.51,2.61,7.57,6.93,7.6,4.15,0,6.67-3.11,6.69-7.6,0-.4,0-18.23,0-18.65a.44.44,0,0,1,.13-.34.51.51,0,0,1,.34-.13h3.06a.45.45,0,0,1,.33.12.54.54,0,0,1,.14.34V46.2c0,6.79-4.93,11.19-10.65,11.21a11,11,0,0,1-7.77-3"/><path class="cls-2" d="M292.61,57.26a.53.53,0,0,1-.33-.15.45.45,0,0,1-.13-.32V27.45a.49.49,0,0,1,.13-.35.57.57,0,0,1,.33-.13h3.1a.55.55,0,0,1,.34.13.59.59,0,0,1,.13.34v26h13.08a.45.45,0,0,1,.36.17.43.43,0,0,1,.1.38l-.5,2.86a.48.48,0,0,1-.46.4Z"/><path class="cls-2" d="M79.13,17.94h-.35V5.82H83a4.1,4.1,0,0,1,3,1.33,5.39,5.39,0,0,1,1.23,3.66V13A5.29,5.29,0,0,1,86,16.67a4.17,4.17,0,0,1-3,1.27Zm1.52-1.81h2.26c1.75-.05,2.21-1.1,2.35-3.09V10.82c-.14-2-.6-3.11-2.35-3.16H80.65Z"/><path class="cls-2" d="M93.88,17.94V5.85h7.18V7.68h-5.3V11h4.82v1.85H95.76v3.26H101l0,.3.21,1.56Z"/><path class="cls-2" d="M111.11,18.12a10.65,10.65,0,0,1-3.51-.7l-.27-.11,0-.27.16-1.28,0-.51.46.25a7.59,7.59,0,0,0,3.2.85c1.12,0,1.84-.34,2-1.47a.91.91,0,0,0,0-.23,1.56,1.56,0,0,0-1.2-1.54c-.74-.27-1.59-.46-2.47-.73a3.14,3.14,0,0,1-2.45-3.1,3.39,3.39,0,0,1,.08-.76c.37-2,2.31-2.79,4.11-2.78a6.28,6.28,0,0,1,3.19.83l.17.11v.21l-.11,1.86L114,8.36a5.31,5.31,0,0,0-2.76-.86h-.19a2,2,0,0,0-2,1.29,4.28,4.28,0,0,0,0,.46,1.52,1.52,0,0,0,1.23,1.47c.83.26,1.94.56,2.76.84a3.12,3.12,0,0,1,2.2,3,4.44,4.44,0,0,1-.12,1c-.46,1.82-2.14,2.58-3.93,2.58h-.06"/><path class="cls-2" d="M123.38,17.94V7.59h-2.86a.32.32,0,0,1-.25-.09.34.34,0,0,1-.1-.26V5.85h8.31V7.59h-3.22V17.94Z"/><path class="cls-2" d="M135.39,5.85h0a.29.29,0,0,1,.25.1.38.38,0,0,1,.11.24V18h-1.9V5.84Z"/><path class="cls-2" d="M142.59,18V5.84h1.9V16.13h5.33L149.49,18Z"/><path class="cls-2" d="M159.9,5.85,164,18h-2s-.79-2.37-1.25-3.57h-3.47L156,18h-2l4.12-12.1Zm-2.05,6.7h2.33L159,9Z"/><path class="cls-2" d="M219,5.85,223.07,18h-2s-.82-2.37-1.26-3.57h-3.47L215.14,18h-2l4.13-12.1ZM217,12.55h2.33L218.12,9Z"/><path class="cls-2" d="M169.86,17.94V5.82h4.19a4.17,4.17,0,0,1,3,1.33,5.5,5.5,0,0,1,1.22,3.66V13a5.33,5.33,0,0,1-1.23,3.63,4.15,4.15,0,0,1-3,1.27h-4.19Zm1.88-1.81H174c1.74-.05,2.21-1.1,2.34-3.09V10.82c-.12-2-.6-3.11-2.33-3.16h-2.26Z"/><path class="cls-2" d="M184.52,13.06V10.79c0-3.12,2-5.08,4.54-5.06s4.62,1.92,4.62,5.06V13c0,3.08-2,5.06-4.58,5.06s-4.57-2-4.57-5m4.6,3.24c1.78,0,2.55-1.27,2.59-3.31,0,0,0,0,0-.05s0-1.9,0-2.06v-.06c0-2-.84-3.29-2.64-3.32s-2.59,1.34-2.62,3.38v2.06c0,2.06.86,3.33,2.67,3.36"/><path class="cls-2" d="M208,17.56l0,.37h-.34a.23.23,0,0,1-.11,0,2,2,0,0,1-.49.07h0a2.18,2.18,0,0,1-1.77-1,20.85,20.85,0,0,1-1.08-2c-.45-1-1-1.8-1.47-1.76h-1.13V18h-1.89V5.84h.36c1.51,0,1.95,0,4,0a3.57,3.57,0,0,1,3.54,3.66A3.59,3.59,0,0,1,205.13,13a.81.81,0,0,0,.06.08c.69,1.07,1,2.08,1.59,2.93a.52.52,0,0,0,.42.24.66.66,0,0,0,.22-.06l.45-.15,0,.47Zm-4.09-6.13a1.87,1.87,0,0,0,1.78-1.94A1.75,1.75,0,0,0,204,7.66h-2.43v3.77Z"/><path class="cls-2" d="M60.3,30.16A30.15,30.15,0,1,0,30.15,60.3,30.16,30.16,0,0,0,60.3,30.16M40.43,46.79l3.34-9.49a5.4,5.4,0,0,1,2.9-3.15l9.19-3.49Zm-1.65,1c-.41,1.16-3.28,2.85-5.49,3.57,2-3,4-9.16,4-9.16l-1.12-7.33c-.33-2.08.24-3.17,1.62-5L49,17.69ZM4.41,30.66l9.18,3.49a5.35,5.35,0,0,1,2.89,3.15l3.35,9.48ZM21.49,47.81,11.32,17.69,22.5,29.86c1.38,1.86,1.95,3,1.61,5L23,42.22s1.94,6.12,4,9.16c-2.2-.72-5.07-2.41-5.47-3.57M30.13,52c-1.45,0-2.05-.38-3-2.36-.63-1.42-1.39-3.35-1.59-4S24.38,42.4,24.26,42L30.13,8.47l0-.11h0l0,.11L36,42c-.13.45-1.08,3.22-1.29,3.69s-1,2.53-1.6,4c-.93,2-1.52,2.36-3,2.36h0Z"/></g></g></g></svg>