<svg xmlns="http://www.w3.org/2000/svg" viewBox="0 0 320.67 61.57"><defs><style>.cls-1{fill:#fff;}.cls-2{fill:#909093;}.cls-3{fill:#025ea9;}</style></defs><title>Recurso 2</title><g id="Capa_2" data-name="Capa 2"><g id="Inicio"><path class="cls-1" d="M61.58,30.8A30.79,30.79,0,1,0,30.79,61.57,30.8,30.8,0,0,0,61.58,30.8"/><path class="cls-2" d="M83.75,23.27a.48.48,0,0,1,.45.31c9.53,28.54,10.39,30.87,11.34,33.71a.49.49,0,0,1-.06.44.51.51,0,0,1-.39.19H91.35a.49.49,0,0,1-.44-.3c-1.45-3.89-2.16-6.45-3.57-10.23H76.24L72.76,57.6a.47.47,0,0,1-.44.32H68.63a.47.47,0,0,1-.45-.63L79.65,23.58a.48.48,0,0,1,.45-.31Zm-6.1,19.85h8.46l-4.2-12.94Z"/><path class="cls-2" d="M102.14,54.9a12.93,12.93,0,0,1-3.08-8.75V39.52a12.88,12.88,0,0,1,3.08-8.7A10.4,10.4,0,0,1,110,27.37a13.87,13.87,0,0,1,9.5,3.54.46.46,0,0,1,.05.62L117.74,34a.49.49,0,0,1-.35.2A.45.45,0,0,1,117,34a9.17,9.17,0,0,0-7-2.94c-3.91,0-6.83,3.12-6.86,8.43v6.63c0,5.89,3.34,8.52,7.06,8.55,2.81,0,6.26-1.85,6.27-5.86a.65.65,0,0,1,0-.14V45.61a.75.75,0,0,0,0-.12h-6.73a.45.45,0,0,1-.46-.41l-.4-2.83a.47.47,0,0,1,.11-.37.46.46,0,0,1,.35-.16H120a.44.44,0,0,1,.33.14.45.45,0,0,1,.14.33V48.9c0,5.46-4.49,9.48-10.27,9.48h0a10.58,10.58,0,0,1-8-3.48"/><path class="cls-2" d="M144.7,57.92a.48.48,0,0,1-.45-.3c-1.26-3.36-1.89-5.61-3.1-8.88h-9.57l-3,8.86a.46.46,0,0,1-.44.32H124.9a.49.49,0,0,1-.39-.19.5.5,0,0,1-.07-.44l10-29.36a.47.47,0,0,1,.45-.32h3.17v0a.47.47,0,0,1,.45.32c8.31,24.86,9.06,26.89,9.88,29.36a.49.49,0,0,1-.06.44.52.52,0,0,1-.38.19Zm-11.87-13H140l-3.58-11Z"/><path class="cls-2" d="M158,57.92a.46.46,0,0,1-.44-.33l-9.17-29.37a.45.45,0,0,1,.06-.43.46.46,0,0,1,.38-.18h3.29a.46.46,0,0,1,.45.33l7.63,24.66,7.67-24.66a.46.46,0,0,1,.45-.33h3.26v0a.44.44,0,0,1,.38.2.49.49,0,0,1,.06.41l-9.13,29.37a.47.47,0,0,1-.46.33Z"/><path class="cls-2" d="M177.44,57.92a.48.48,0,0,1-.33-.15.43.43,0,0,1-.14-.32V28.08a.49.49,0,0,1,.14-.34.51.51,0,0,1,.33-.13h16.67a.49.49,0,0,1,.32.13.5.5,0,0,1,.15.34V31a.49.49,0,0,1-.15.34.44.44,0,0,1-.32.13H180.93v9.33h12a.43.43,0,0,1,.32.14.45.45,0,0,1,.15.34v2.94a.52.52,0,0,1-.47.47h-12V54h13a.46.46,0,0,1,.46.41l.4,3a.43.43,0,0,1-.12.36.46.46,0,0,1-.34.16Z"/><path class="cls-2" d="M231.85,57.91a.46.46,0,0,1-.44-.29c-1.45-3.89-2.17-6.45-3.57-10.23H216.76l-3.5,10.21a.48.48,0,0,1-.45.31h-3.69a.46.46,0,0,1-.38-.19.47.47,0,0,1-.07-.43l11.48-33.71a.48.48,0,0,1,.45-.31h3.65v0a.45.45,0,0,1,.44.31c9.54,28.55,10.4,30.87,11.35,33.71a.46.46,0,0,1-.45.62ZM218.14,43.12h8.47L222.4,30.19Z"/><path class="cls-2" d="M240.54,57.91a.49.49,0,0,1-.45-.34l-.9-3.62a.44.44,0,0,1,.07-.37c3.83-5.68,11.26-16.31,15.25-22H241a.48.48,0,0,1-.46-.36l-.71-3a.48.48,0,0,1,.46-.58h19a.46.46,0,0,1,.32.13.49.49,0,0,1,.14.34v3l-.08.26C257,35.31,248.77,47,244,54H259.1a.46.46,0,0,1,.47.48v2.94a.57.57,0,0,1-.14.34.55.55,0,0,1-.33.12Z"/><path class="cls-2" d="M268.14,55a11.32,11.32,0,0,1-3.22-8.25V28.08a.46.46,0,0,1,.15-.33.42.42,0,0,1,.33-.14h3.05a.51.51,0,0,1,.34.13.49.49,0,0,1,.14.34V46.74c0,4.52,2.61,7.59,6.93,7.62,4.16,0,6.69-3.12,6.71-7.62V28.08a.45.45,0,0,1,.14-.34.48.48,0,0,1,.34-.13h3.05a.53.53,0,0,1,.34.13.61.61,0,0,1,.14.34c0,.42,0,17.88,0,18.77,0,6.8-4.93,11.21-10.66,11.22a10.92,10.92,0,0,1-7.77-3"/><path class="cls-2" d="M293.54,57.92a.5.5,0,0,1-.33-.15.42.42,0,0,1-.13-.32V28.08a.48.48,0,0,1,.13-.34.53.53,0,0,1,.33-.13h3.11a.45.45,0,0,1,.46.47v26h13.1a.45.45,0,0,1,.36.17.43.43,0,0,1,.1.38l-.5,2.86a.47.47,0,0,1-.46.39Z"/><path class="cls-2" d="M79.82,18.57h-.34V6.43h4.17a4.2,4.2,0,0,1,3,1.33,5.46,5.46,0,0,1,1.23,3.67v2.23a5.24,5.24,0,0,1-1.24,3.63,4.2,4.2,0,0,1-3,1.28Zm1.52-1.82h2.27c1.75-.05,2.21-1.1,2.35-3.09V11.44c-.14-2-.6-3.12-2.35-3.16H81.34Z"/><path class="cls-2" d="M94.59,18.57V6.46h7.19V8.29H96.47v3.3h4.83v1.85H96.47V16.7h5.2l0,.31.21,1.56Z"/><path class="cls-2" d="M111.84,18.75a10.64,10.64,0,0,1-3.51-.71l-.27-.1,0-.28.16-1.28,0-.51.45.25A7.68,7.68,0,0,0,112,17c1.12,0,1.85-.33,2-1.47a.9.9,0,0,0,0-.22,1.57,1.57,0,0,0-1.21-1.55c-.74-.27-1.59-.46-2.47-.72a3.17,3.17,0,0,1-2.46-3.11,5.45,5.45,0,0,1,.08-.77c.38-2,2.31-2.79,4.12-2.78a6.32,6.32,0,0,1,3.2.83l.17.12,0,.2-.11,1.87L114.75,9A5.38,5.38,0,0,0,112,8.12h-.19a2,2,0,0,0-2,1.3,4.28,4.28,0,0,0,0,.46A1.52,1.52,0,0,0,111,11.35c.83.26,1.94.56,2.76.84a3.13,3.13,0,0,1,2.21,3,5.15,5.15,0,0,1-.12,1c-.46,1.83-2.14,2.58-3.94,2.58h-.06"/><path class="cls-2" d="M124.13,18.57V8.21h-2.87a.32.32,0,0,1-.24-.08.34.34,0,0,1-.11-.26s0-1.4,0-1.4h8.32V8.2H126c0,2,0,10.36,0,10.36Z"/><path class="cls-2" d="M136.15,6.46h0a.29.29,0,0,1,.25.1.38.38,0,0,1,.11.25V18.58h-1.9V6.46Z"/><polygon class="cls-2" points="143.35 18.58 143.35 6.46 145.26 6.46 145.26 16.75 150.59 16.75 150.26 18.58 143.35 18.58"/><path class="cls-2" d="M160.69,6.46l4.06,12.12h-2s-.8-2.37-1.25-3.58H158l-1.22,3.58h-2l4.12-12.12Zm-2.06,6.71H161L159.82,9.6Z"/><path class="cls-2" d="M219.85,6.46l4.07,12.12h-2s-.81-2.37-1.25-3.58H217.2L216,18.58h-2L218.1,6.46Zm-2,6.71h2.33L219,9.6Z"/><path class="cls-2" d="M170.66,18.57V6.43h4.19a4.18,4.18,0,0,1,3,1.33,5.48,5.48,0,0,1,1.23,3.67v2.23a5.32,5.32,0,0,1-1.23,3.63,4.22,4.22,0,0,1-3,1.28h-4.19Zm1.88-1.82h2.26c1.75-.05,2.21-1.1,2.34-3.09V11.44c-.12-2-.6-3.12-2.33-3.16h-2.27Z"/><path class="cls-2" d="M185.33,13.68V11.41c0-3.12,2-5.09,4.54-5.07s4.62,1.92,4.62,5.07v2.24c0,3.09-2,5.06-4.58,5.07s-4.58-2-4.58-5m4.61,3.24c1.78,0,2.56-1.27,2.59-3.31,0,0,0,0,0,0s0-1.9,0-2.06l0-.06c0-2-.84-3.3-2.64-3.32s-2.6,1.33-2.63,3.38v2.06c0,2.06.87,3.34,2.68,3.36"/><path class="cls-2" d="M208.82,18.18l0,.37h-.34a.12.12,0,0,1-.11,0,1.56,1.56,0,0,1-.49.08s0,0,0,0a2.15,2.15,0,0,1-1.77-1,18.79,18.79,0,0,1-1.08-2c-.45-1-1-1.8-1.48-1.76h-1.13v4.7h-1.89V6.45h.36c1.51,0,2,0,4,0a3.58,3.58,0,0,1,3.55,3.67A3.6,3.6,0,0,1,206,13.6l.06.08c.69,1.08,1,2.08,1.59,2.93a.52.52,0,0,0,.43.24,1,1,0,0,0,.22-.05l.45-.16,0,.47Zm-4.09-6.13a1.87,1.87,0,0,0,1.78-1.94,1.75,1.75,0,0,0-1.67-1.83h-2.43v3.77Z"/><path class="cls-2" d="M317.36,52.58A3.3,3.3,0,1,1,314,55.87a3.3,3.3,0,0,1,3.33-3.29m0,6.14a2.82,2.82,0,1,0-2.74-2.85,2.74,2.74,0,0,0,2.74,2.85M316.07,54h1.49c.92,0,1.35.38,1.35,1.12a1,1,0,0,1-1,1.06l1.09,1.7h-.64l-1-1.68h-.64v1.68h-.59Zm.6,1.73h.64c.52,0,1,0,1-.63s-.44-.6-.86-.6h-.79Z"/><path class="cls-3" d="M61,30.8A30.19,30.19,0,1,0,30.79,61,30.19,30.19,0,0,0,61,30.8M41.08,47.45l3.35-9.51a5.35,5.35,0,0,1,2.9-3.14l9.2-3.5Zm-1.65,1C39,49.64,36.15,51.33,33.94,52c2-3,4-9.16,4-9.16l-1.12-7.35c-.33-2.08.24-3.17,1.62-5l11.2-12.19ZM5,31.3l9.19,3.5a5.38,5.38,0,0,1,2.9,3.14l3.35,9.5Zm17.1,17.17L11.94,18.31,23.13,30.5c1.38,1.86,1.95,3,1.62,5l-1.11,7.35S25.57,49,27.6,52c-2.2-.72-5.08-2.4-5.48-3.57m8.65,4.15c-1.45,0-2.06-.39-3-2.37-.64-1.42-1.4-3.35-1.59-4s-1.17-3.25-1.3-3.7L30.77,9.09l0-.12h0l0,.12L36.64,42.6c-.12.45-1.07,3.22-1.29,3.7s-1,2.53-1.59,4c-.93,2-1.53,2.37-3,2.37h0Z"/><path class="cls-3" d="M55.89,52.58a3.3,3.3,0,1,1-3.32,3.29,3.29,3.29,0,0,1,3.32-3.29m0,6.14a2.82,2.82,0,1,0-2.73-2.85,2.73,2.73,0,0,0,2.73,2.85M54.61,54h1.48c.93,0,1.35.38,1.35,1.12a1,1,0,0,1-1,1.06l1.12,1.7h-.65l-1.06-1.68H55.2v1.68h-.59Zm.59,1.73h.63c.53,0,1,0,1-.63s-.43-.6-.84-.6h-.8Z"/></g></g></svg>